<mxfile host="Electron" modified="2023-08-30T15:47:20.249Z" agent="Mozilla/5.0 (Windows NT 10.0; Win64; x64) AppleWebKit/537.36 (KHTML, like Gecko) draw.io/21.6.8 Chrome/114.0.5735.289 Electron/25.5.0 Safari/537.36" etag="fOp_1yRoGmQGWIRZEFRa" version="21.6.8" type="device">
  <diagram id="prtHgNgQTEPvFCAcTncT" name="Page-1">
    <mxGraphModel dx="1195" dy="703" grid="1" gridSize="10" guides="1" tooltips="1" connect="1" arrows="1" fold="1" page="1" pageScale="1" pageWidth="827" pageHeight="1169" math="0" shadow="0">
      <root>
        <mxCell id="0" />
        <mxCell id="1" parent="0" />
        <mxCell id="Gme0h3k4BJJvkPMHEsmW-1" value="Home" style="html=1;whiteSpace=wrap;strokeColor=none;fillColor=#0079D6;labelPosition=center;verticalLabelPosition=middle;verticalAlign=top;align=center;fontSize=12;outlineConnect=0;spacingTop=-6;fontColor=#FFFFFF;sketch=0;shape=mxgraph.sitemap.page;" vertex="1" parent="1">
          <mxGeometry x="370" y="30" width="120" height="70" as="geometry" />
        </mxCell>
        <mxCell id="Gme0h3k4BJJvkPMHEsmW-2" value="Contact Us" style="html=1;whiteSpace=wrap;strokeColor=none;fillColor=#0079D6;labelPosition=center;verticalLabelPosition=middle;verticalAlign=top;align=center;fontSize=12;outlineConnect=0;spacingTop=-6;fontColor=#FFFFFF;sketch=0;shape=mxgraph.sitemap.page;" vertex="1" parent="1">
          <mxGeometry x="530" y="130" width="120" height="70" as="geometry" />
        </mxCell>
        <mxCell id="Gme0h3k4BJJvkPMHEsmW-3" value="About Us" style="html=1;whiteSpace=wrap;strokeColor=none;fillColor=#0079D6;labelPosition=center;verticalLabelPosition=middle;verticalAlign=top;align=center;fontSize=12;outlineConnect=0;spacingTop=-6;fontColor=#FFFFFF;sketch=0;shape=mxgraph.sitemap.page;" vertex="1" parent="1">
          <mxGeometry x="50" y="130" width="120" height="70" as="geometry" />
        </mxCell>
        <mxCell id="Gme0h3k4BJJvkPMHEsmW-4" value="Our Dices" style="html=1;whiteSpace=wrap;strokeColor=none;fillColor=#0079D6;labelPosition=center;verticalLabelPosition=middle;verticalAlign=top;align=center;fontSize=12;outlineConnect=0;spacingTop=-6;fontColor=#FFFFFF;sketch=0;shape=mxgraph.sitemap.page;" vertex="1" parent="1">
          <mxGeometry x="210" y="130" width="120" height="70" as="geometry" />
        </mxCell>
        <mxCell id="Gme0h3k4BJJvkPMHEsmW-5" value="Buy Now" style="html=1;whiteSpace=wrap;strokeColor=none;fillColor=#0079D6;labelPosition=center;verticalLabelPosition=middle;verticalAlign=top;align=center;fontSize=12;outlineConnect=0;spacingTop=-6;fontColor=#FFFFFF;sketch=0;shape=mxgraph.sitemap.page;" vertex="1" parent="1">
          <mxGeometry x="370" y="130" width="120" height="70" as="geometry" />
        </mxCell>
        <mxCell id="Gme0h3k4BJJvkPMHEsmW-6" value="Customer Reviews" style="html=1;whiteSpace=wrap;strokeColor=none;fillColor=#0079D6;labelPosition=center;verticalLabelPosition=middle;verticalAlign=top;align=center;fontSize=12;outlineConnect=0;spacingTop=-6;fontColor=#FFFFFF;sketch=0;shape=mxgraph.sitemap.page;" vertex="1" parent="1">
          <mxGeometry x="690" y="130" width="120" height="70" as="geometry" />
        </mxCell>
        <mxCell id="Gme0h3k4BJJvkPMHEsmW-7" value="" style="endArrow=none;html=1;rounded=0;exitX=0.5;exitY=0;exitDx=0;exitDy=0;exitPerimeter=0;entryX=0.5;entryY=1;entryDx=0;entryDy=0;entryPerimeter=0;" edge="1" parent="1" source="Gme0h3k4BJJvkPMHEsmW-3" target="Gme0h3k4BJJvkPMHEsmW-1">
          <mxGeometry width="50" height="50" relative="1" as="geometry">
            <mxPoint x="310" y="110" as="sourcePoint" />
            <mxPoint x="360" y="60" as="targetPoint" />
          </mxGeometry>
        </mxCell>
        <mxCell id="Gme0h3k4BJJvkPMHEsmW-8" value="" style="endArrow=none;html=1;rounded=0;exitX=0.5;exitY=0;exitDx=0;exitDy=0;exitPerimeter=0;entryX=0.5;entryY=1;entryDx=0;entryDy=0;entryPerimeter=0;" edge="1" parent="1" source="Gme0h3k4BJJvkPMHEsmW-4" target="Gme0h3k4BJJvkPMHEsmW-1">
          <mxGeometry width="50" height="50" relative="1" as="geometry">
            <mxPoint x="120" y="140" as="sourcePoint" />
            <mxPoint x="380" y="75" as="targetPoint" />
          </mxGeometry>
        </mxCell>
        <mxCell id="Gme0h3k4BJJvkPMHEsmW-9" value="" style="endArrow=none;html=1;rounded=0;exitX=0.5;exitY=0;exitDx=0;exitDy=0;exitPerimeter=0;entryX=0.5;entryY=1;entryDx=0;entryDy=0;entryPerimeter=0;" edge="1" parent="1" source="Gme0h3k4BJJvkPMHEsmW-5" target="Gme0h3k4BJJvkPMHEsmW-1">
          <mxGeometry width="50" height="50" relative="1" as="geometry">
            <mxPoint x="280" y="140" as="sourcePoint" />
            <mxPoint x="390" y="85" as="targetPoint" />
          </mxGeometry>
        </mxCell>
        <mxCell id="Gme0h3k4BJJvkPMHEsmW-11" value="" style="endArrow=none;html=1;rounded=0;exitX=0.5;exitY=0;exitDx=0;exitDy=0;exitPerimeter=0;" edge="1" parent="1">
          <mxGeometry width="50" height="50" relative="1" as="geometry">
            <mxPoint x="589.66" y="130" as="sourcePoint" />
            <mxPoint x="430" y="100" as="targetPoint" />
          </mxGeometry>
        </mxCell>
        <mxCell id="Gme0h3k4BJJvkPMHEsmW-12" value="" style="endArrow=none;html=1;rounded=0;exitX=0.5;exitY=0;exitDx=0;exitDy=0;exitPerimeter=0;" edge="1" parent="1">
          <mxGeometry width="50" height="50" relative="1" as="geometry">
            <mxPoint x="749.66" y="130" as="sourcePoint" />
            <mxPoint x="430" y="100" as="targetPoint" />
          </mxGeometry>
        </mxCell>
      </root>
    </mxGraphModel>
  </diagram>
</mxfile>
